<?xml version="1.0" encoding="UTF-8" standalone="no"?>
<!-- Created with Inkscape (http://www.inkscape.org/) -->
<svg xmlns:inkscape="http://www.inkscape.org/namespaces/inkscape" xmlns:rdf="http://www.w3.org/1999/02/22-rdf-syntax-ns#" xmlns="http://www.w3.org/2000/svg" xmlns:xlink="http://www.w3.org/1999/xlink" xmlns:ns1="http://sozi.baierouge.fr" xmlns:cc="http://creativecommons.org/ns#" xmlns:sodipodi="http://sodipodi.sourceforge.net/DTD/sodipodi-0.dtd" xmlns:dc="http://purl.org/dc/elements/1.1/" id="svg2" xml:space="preserve" viewBox="0 0 96.85 92.6" version="1.1" inkscape:version="0.91 r13725">
  <g id="g10" transform="matrix(1.25 0 0 -1.25 0 92.6)">
    <g id="g12">
      <path id="path14" style="fill-rule:evenodd;fill:#487485" d="m66.762 1.002c-1.203-0.481-2.364-0.684-3.481-0.602-1.203 0.055-2.043 0.68-2.519 1.879-0.457 1.094-0.414 1.879 0.117 2.36 0.641 0.535 1.762 1.867 3.359 4l5.602-1.321-1.641-5.558c-0.371-0.266-0.851-0.52-1.437-0.758z" inkscape:connector-curvature="0"/>
      <path id="path16" style="fill-rule:evenodd;fill:#82abbf" d="m57.32 68.56 11.719 2.399 2.801-1.199-4.399-9.602-10.121 8.402z" inkscape:connector-curvature="0"/>
      <path id="path18" style="fill-rule:evenodd;fill:#c7b48d" d="m73.68 69.881 2.359 1.359 0.801-1 0.199-55.398-8.32-8.961 0.359 61.597 1.481 0.922c1.175 0.692 2.214 1.188 3.121 1.481z" inkscape:connector-curvature="0"/>
      <path id="path20" style="fill-rule:evenodd;fill:#ffe2a8" d="m75.641 64.279v3.723c-0.055 1.223-0.188 1.785-0.403 1.68l-4.636-3c-0.774-0.563-1.137-2.321-1.082-5.282v-45.48c0-4.399 0.132-6.547 0.402-6.442l5.879 6.883c0.105 0.321 0.144 1.399 0.121 3.239-0.027 2.16-0.043 3.652-0.043 4.48l-0.238 40.199zm-1.961 5.602 2.359 1.359 0.68-0.84 0.242-52.679c0-1.575-0.027-2.586-0.082-3.039l-8.16-8.801 0.359 61.597 1.481 0.922c1.175 0.692 2.214 1.188 3.121 1.481z" inkscape:connector-curvature="0"/>
      <path id="path22" style="fill-rule:evenodd;fill:#528396" d="m69.039 69.682 7.441 3.437c0.532 0.934 0.801-0.68 0.801-4.84l0.199-51.039c0-2.695-0.187-4.121-0.558-4.281l-8.723-11.199c-0.32-0.293-0.519 0.84-0.597 3.398-0.028 1.016-0.043 3.043-0.043 6.082l0.32 52.32c0 1.547 0.094 2.907 0.281 4.079 0.238 1.254 0.535 1.933 0.879 2.043zm1-8.762v-45.52c0-4.425 0.149-6.558 0.441-6.398l5.84 6.879c0.106 0.32 0.16 1.387 0.16 3.199-0.054 2.16-0.082 3.652-0.082 4.48l-0.238 40.2v3.718c-0.055 1.227-0.187 1.79-0.398 1.68l-4.641-3c-0.773-0.531-1.133-2.277-1.082-5.238z" inkscape:connector-curvature="0"/>
      <path id="path24" style="fill-rule:evenodd;fill:#ffe2a8" d="m75.68 62.521c0.054-0.507-0.149-1.652-0.602-3.441-0.476-1.895-0.703-3.238-0.68-4.039-0.21-16.106-0.32-24.469-0.32-25.082 0-0.664 0.137-2.414 0.402-5.238 0.188-2.668 0.122-4.293-0.199-4.879-0.082-0.188-0.136-0.641-0.16-1.364 0-0.585-0.133-0.984-0.402-1.199-0.371-0.32-0.891-0.453-1.559-0.398-0.695 0.054-1.094 0.332-1.199 0.84-0.188 0.879-0.188 2.437 0 4.679 0.266 2.348 0.414 3.785 0.437 4.321 0.27 1.652 0.481 3.238 0.641 4.757 0.348 2.907 0.469 5.696 0.359 8.364-0.425 8.851-0.613 14.25-0.558 16.199 0.027 1.625 0.172 3.078 0.441 4.359 0.293 1.465 0.68 2.305 1.16 2.52 0.371 0.16 0.786 0.226 1.239 0.199 0.613-0.027 0.945-0.226 1-0.598z" inkscape:connector-curvature="0"/>
      <path id="path26" style="fill-rule:evenodd;fill:#528396" d="m75.039 62.92c0.586 0.238 0.906-0.535 0.961-2.32 0.027-1.067 0.027-2.918 0-5.559-0.215-16.106-0.32-24.469-0.32-25.082 0-0.664 0.132-2.414 0.398-5.238 0.188-2.668 0.121-4.293-0.199-4.879-0.481-0.989-1.067-1.801-1.758-2.442-0.855-0.746-1.375-0.64-1.562 0.321-0.184 0.879-0.184 2.437 0 4.679 0.269 2.348 0.414 3.785 0.441 4.321 0.266 1.652 0.48 3.238 0.641 4.757 0.347 2.907 0.464 5.696 0.359 8.364-0.426 8.851-0.613 14.25-0.559 16.199 0.028 1.625 0.172 3.078 0.438 4.359 0.293 1.465 0.68 2.305 1.16 2.52z" inkscape:connector-curvature="0"/>
      <path id="path28" style="fill-rule:evenodd;fill:#ffe8bd" d="m71.84 73.361 1.398-0.48-6.476-3.199c-12.668-0.082-25.176 0.011-37.524 0.277-7.703 0.16-13.05 0.375-16.039 0.641l-2.16 0.359 10.723 2.723 1.879 0.199 48.199-0.52z" inkscape:connector-curvature="0"/>
      <path id="path30" style="fill-rule:evenodd;fill:#ebcf99" d="m73.238 72.881-6.476-3.199h-6.961c2.773 0.07 4.773 0.257 6 0.558l3.679 1.602c0.321 0.238-0.48 0.359-2.402 0.359-2.613-0.027-4.558-0.016-5.84 0.039l-31.679 0.84c-3.2 0-5.106-0.094-5.719-0.281l-9.481-2.598c-0.933 0.051-1.734 0.184-2.398 0.399-0.508 0.187-0.789 0.293-0.84 0.32l9.84 2.32c0.32 0.106 1.094 0.199 2.32 0.281 1.172 0.079 2.481 0.118 3.918 0.118l44.922-0.36 1.117-0.398z" inkscape:connector-curvature="0"/>
      <path id="path32" style="fill-rule:evenodd;fill:#74a4b8" d="m65.48 70.721 5.122 2.078c0.32 0.215-0.668 0.336-2.961 0.359-3.039-0.051-5.2-0.051-6.481 0l-31.961 0.363c-3.84 0-5.906-0.054-6.199-0.16l-9.719-2.48c-0.375-0.133 1.067-0.199 4.321-0.199l38.277-0.602c3.469 0.055 5.32 0.094 5.562 0.121 1.653 0.078 3 0.254 4.039 0.52zm7.36 3c1.414 0 2.508-0.039 3.281-0.121 0.774-0.106 1-0.215 0.68-0.321l-9.039-4.199c-0.43-0.16-1.176-0.305-2.242-0.441-1.387-0.161-2.973-0.227-4.758-0.2l-53.082 0.481c-1.282 0.027-2.332 0.148-3.16 0.359-0.747 0.215-0.934 0.375-0.559 0.481l16.641 3.922c0.32 0.105 1.093 0.199 2.32 0.277 1.172 0.082 2.492 0.121 3.957 0.121l45.961-0.359z" inkscape:connector-curvature="0"/>
      <path id="path34" style="fill-rule:evenodd;fill:#ebcf99" d="m55.039 72.56c0.883 0.028 3.348 0.122 7.402 0.282 0.348 0 0.52-0.231 0.52-0.684 0.027-0.426-0.082-0.703-0.32-0.84-0.453-0.265-1.172-0.425-2.161-0.476-3.492-0.27-6.281-0.414-8.359-0.442h-3c-2.723-0.027-3.949-0.027-3.68 0 0.399 0.106-2.175 0.215-7.722 0.321l-3.758 0.039c-4.508 0.082-7.055 0.105-7.641 0.082-0.508 0-1.16-0.043-1.961-0.121-0.586-0.055-1.132-0.067-1.64-0.039-0.797 0.023-1.16 0.343-1.078 0.957 0.078 0.586 0.281 0.882 0.597 0.882 0.242 0 1.602 0.106 4.082 0.321 2.641 0.211 4.586 0.304 5.84 0.277 0.828-0.027 2.039-0.078 3.641-0.16 1.734-0.106 2.652-0.172 2.758-0.199 1.386-0.453 2.695-0.614 3.921-0.481 0.665 0.082 1.586 0.199 2.758 0.36l2.242-0.2c3.547-0.054 6.067-0.011 7.559 0.121z" inkscape:connector-curvature="0"/>
      <path id="path36" style="fill-rule:evenodd;fill:#74a4b8" d="m54.961 72.881c3.945 0.105 6.105 0.16 6.48 0.16 1.118-0.027 1.465-0.121 1.039-0.281-0.425-0.16-1.093-0.266-2-0.321-3.492-0.265-6.281-0.414-8.359-0.437h-3c-2.723-0.027-3.949-0.027-3.68 0 0.399 0.105-2.175 0.211-7.722 0.316l-3.758 0.043c-4.508 0.078-7.055 0.106-7.641 0.078-1.492-0.105-2.695-0.16-3.601-0.16-1.199 0.028-1.16 0.16 0.121 0.403 1.199 0.265 2.441 0.437 3.719 0.519 2.32 0.133 4.093 0.184 5.32 0.16 0.773 0 1.867-0.027 3.281-0.082 1.465-0.054 2.254-0.094 2.36-0.121 0.132-0.051 2.015-0.105 5.64-0.156l11.801-0.121z" inkscape:connector-curvature="0"/>
      <path id="path38" style="fill-rule:evenodd;fill:#ffe2a8" d="m66.078 65.478v-63.277l-63.359 2.117 0.082 63.481 63.277-2.321z" inkscape:connector-curvature="0"/>
      <path id="path40" style="fill-rule:evenodd;fill:#ebcf99" d="m65.238 60.959c-0.984-0.293-2.449-0.547-4.398-0.758-3.918-0.426-8.281-0.469-13.078-0.121-6.59 0.559-11.176 0.934-13.762 1.121-4.293 0.348-8.398 0.52-12.32 0.52-3.973 0.027-8.321-0.266-13.039-0.879-2.348-0.297-4.293-0.59-5.84-0.883l-0.84 3.402c0.266-0.082 0.586-0.16 0.961-0.242 1.73-0.371 4.078-0.531 7.039-0.48 9.652 0.16 18.547-0.094 26.68-0.758 3.894-0.348 7.718-0.68 11.48-1 2.184-0.16 4.504-0.121 6.957 0.121 3.734 0.371 7.055 1.09 9.961 2.156l0.199-2.199zm-15.258 2.359c-9.343-0.117-16.164-0.039-20.46 0.242-3.227 0.215-7.708 0.293-13.442 0.239-2.984-0.024-6.547-0.067-10.68-0.117h-3.519l-0.438 1.757c1.625-0.398 3.704-0.652 6.239-0.757 1.441-0.055 4.375-0.082 8.8-0.082 11.172-0.051 20.051-0.348 26.641-0.879 2.59-0.196 4.875-0.328 6.859-0.403zm-48.101 0.364 0.082-0.321c-0.367 0.106-0.633 0.211-0.801 0.321h0.719z" inkscape:connector-curvature="0"/>
      <path id="path42" style="fill-rule:evenodd;fill:#ebcf99" d="m65.48 36.639c-0.558-0.133-1.625-0.184-3.199-0.161-3.121 0.028-7.187 0.387-12.203 1.082-7.223 1.012-11.863 1.625-13.918 1.84-3.547 0.348-6.773 0.442-9.68 0.282-2.16-0.137-6.253-0.707-12.281-1.723-5.332-0.906-8.344-1.305-9.039-1.199l-1.5 0.261c-0.094 1.45-0.148 3.317-0.16 5.598 0.879-0.324 2.113-0.652 3.699-0.98 3.387-0.692 7.067-1.079 11.039-1.161 3.149-0.05 7.16-0.023 12.043 0.082 4.078 0.106 6.973 0.106 8.68 0 0.184 0 3.785-0.292 10.801-0.878 5.093-0.43 8.531-0.59 10.316-0.481 2.988 0.16 4.817 0.305 5.481 0.438l-0.079-3zm0.2 4.64c-1.414-0.105-3.293-0.16-5.641-0.16-4.691 0-9.387 0.254-14.078 0.762-4.215 0.453-9.336 0.504-15.359 0.16-6.082-0.348-9.856-0.441-11.321-0.281-3.832 0.394-9.086 1.277-15.761 2.64-0.004 0.364-0.004 0.739 0 1.121 0.003 0.692 0.011 1.383 0.019 2.079 0.262-0.196 0.559-0.383 0.902-0.559 1.813-1.016 4.957-1.988 9.438-2.922 5.84-1.25 11.109-1.625 15.801-1.117 4.879 0.504 9.242 0.719 13.082 0.637 2.504-0.051 6.211-0.305 11.117-0.758 3.414-0.293 6.441-0.242 9.082 0.16 1.332 0.184 2.32 0.414 2.961 0.68l-0.242-2.442zm-0.641 8.16c-1.012-0.293-2.344-0.531-4-0.718-3.332-0.403-6.613-0.387-9.84 0.039-4 0.535-8.387 0.894-13.16 1.082-5.012 0.183-9.293 0.117-12.84-0.203-3.332-0.293-7.387-0.36-12.16-0.2-4.211 0.133-7.16 0.36-8.84 0.68-0.222 0.039-0.422 0.066-0.597 0.082 0 0.363 0.007 0.731 0.019 1.098 0.402-0.074 0.914-0.133 1.539-0.18 2.215-0.211 5.012-0.144 8.399 0.199 3.519 0.375 7.441 0.524 11.761 0.442 2.188-0.028 5.305-0.16 9.36-0.399 0.293-0.027 3.945-0.402 10.961-1.121 5.359-0.558 9.078-0.746 11.16-0.558 3.492 0.293 5.359 0.464 5.597 0.519l2.641 0.68v-1.442zm0.641 6.039c-7.758 0.188-13.106 0.403-16.039 0.641-2.348 0.16-5.039 0.133-8.082-0.078-3.305-0.215-6.438-0.641-9.399-1.281-2.961-0.641-8.16-1.227-15.601-1.758-7.278-0.508-11.371-0.617-12.278-0.32-0.238 0.078-0.445 0.117-0.621 0.117 0.043 1.656 0.106 3.308 0.18 4.961 1.762-1.039 3.988-1.895 6.68-2.559 3.785-0.906 7.359-1.066 10.718-0.48 4.457 0.8 8.856 1.464 13.203 2 5.227 0.64 9.321 0.918 12.278 0.839 2.16-0.082 5.32-0.226 9.48-0.441 3.36-0.133 5.563-0.105 6.602 0.082 1.679 0.293 2.719 0.547 3.121 0.758l-0.242-2.481zm-62.059-4.179c-0.332 0.066-0.594 0.14-0.781 0.222-0.051 0.293-0.028 0.559 0.082 0.797 0.125 0.325 0.371 0.485 0.738 0.481-0.015-0.5-0.027-1-0.039-1.5zm-0.101-6.899c-0.012-0.617-0.016-1.211-0.02-1.781-0.043 0.024-0.09 0.043-0.141 0.063l-0.039 1.757c0.063-0.011 0.129-0.027 0.2-0.039zm-1.122 4.84c-0.132 0.692 0.27 1.012 1.204 0.961-0.028-0.867-0.047-1.734-0.063-2.601-0.664 0.496-1.043 1.043-1.141 1.64zm1.403-13.84c-0.067 0.012-0.133 0.028-0.199 0.039-1.282 0.243-1.747 0.602-1.403 1.082l0.879 0.598 0.582-0.098c0.043-0.617 0.09-1.156 0.141-1.621zm11.437 0.442c-5.863-1.762-9.426-2.629-10.679-2.602-0.321 0.012-0.575 0.731-0.758 2.16 2.109-0.351 5.922-0.207 11.437 0.442z" inkscape:connector-curvature="0"/>
      <path id="path44" style="fill-rule:evenodd;fill:#ebcf99" d="m47.52 34.842c-0.133 0.023-2.598 0.664-7.399 1.918-2.426 0.64-5.933 0.828-10.519 0.558l-6.204-0.558 1.043 0.32 3.161 0.398c6.691 0.774 12.558 0.59 17.597-0.558 4.586-1.012 9.602-1.867 15.039-2.559 0-0.109-0.226-0.215-0.679-0.32-0.934-0.188-2.547-0.242-4.84-0.16-2.399 0.105-4.797 0.426-7.199 0.961z" inkscape:connector-curvature="0"/>
      <path id="path46" style="fill-rule:evenodd;fill:#ebcf99" d="m64.801 30.842c0.394-0.106 0.441-0.188 0.14-0.242l-0.14 0.242zm0.14-0.242 0.981-1.758c-0.75-0.082-1.695-0.082-2.844 0-1.598 0.105-2.637 0.183-3.117 0.238-1.469 0.16-2.922 0.426-4.359 0.801-1.387 0.344-3.11 0.531-5.161 0.558l-2.679-0.039 2.476 0.481c2.348 0.265 5.231 0.254 8.641-0.039 3.441-0.27 5.453-0.348 6.043-0.242h0.019z" inkscape:connector-curvature="0"/>
      <path id="path48" style="fill-rule:evenodd;fill:#ebcf99" d="m3.34 31.002c0.066-0.098 0.191-0.18 0.379-0.242 1.308-0.453 4.976-0.293 11 0.48 6.64 0.852 12.109 1.414 16.402 1.68 3.172 0.16 6.547 0.199 10.117 0.121 1.891-0.051 3.477-0.098 4.762-0.141-1.172 0.012-2.426 0.02-3.762 0.02-5.304-0.027-9.57-0.36-12.797-1-3.546-0.719-8.281-1.399-14.203-2.039-5.437-0.613-8.851-0.879-10.238-0.801l-2.359 0.121 0.699 1.801zm-0.02 0.359 0.282 0.321-0.262-0.68c-0.082 0.098-0.09 0.215-0.02 0.359z" inkscape:connector-curvature="0"/>
      <path id="path50" style="fill-rule:evenodd;fill:#ebcf99" d="m3.078 27.92c1.734-0.453 4.32-0.668 7.762-0.641 3.215 0 5.098 0.047 5.66 0.141-7.27-1.508-11.453-2.246-12.539-2.219-0.695 0.024-1.039 0.481-1.039 1.359l0.156 1.36z" inkscape:connector-curvature="0"/>
      <path id="path52" style="fill-rule:evenodd;fill:#ebcf99" d="m3.762 23.439c1.144-0.105 2.691-0.148 4.636-0.121 3.922 0.082 7.922 0.442 12 1.082 8.59 1.332 13.27 2.039 14.043 2.121 5.067 0.559 9.571 0.559 13.52 0 3.84-0.535 7.773-1.562 11.801-3.082 2-0.746 3.625-1.437 4.879-2.078l0.757-2.082c-1.093 0.746-2.543 1.547-4.359 2.403-3.625 1.679-7.277 2.718-10.961 3.117-4.984 0.562-9.051 0.855-12.199 0.883-4 0.023-7.957-0.336-11.879-1.082-13.574-2.508-20.84-3.747-21.801-3.719-0.558 0.027-0.801 0.453-0.719 1.277l0.282 1.281z" inkscape:connector-curvature="0"/>
      <path id="path54" style="fill-rule:evenodd;fill:#ebcf99" d="m65.52 13.201c-1.122-0.266-2.481-0.519-4.079-0.762-3.226-0.453-6.066-0.574-8.519-0.359-1.176 0.105-5.188 0.602-12.043 1.48-6.32 0.825-11.504 1.375-15.559 1.641-4.375 0.293-9.375-0.266-15-1.68-2.8-0.722-5.175-1.468-7.121-2.242l-0.019 4.403c0.683 0.339 1.609 0.66 2.781 0.957 3.519 0.906 8.078 1.136 13.68 0.679 4.238-0.343 10.414-1.183 18.519-2.519 6.719-1.094 11.36-1.614 13.918-1.559 4.883 0.078 9.442 0.465 13.684 1.16l-0.242-1.199zm-0.079 2.641c-1.148 0.558-2.746 1.211-4.8 1.957-4.133 1.492-8.508 2.679-13.121 3.562-5.012 0.934-10.415 1.344-16.2 1.239-4.773-0.079-8.734-0.454-11.879-1.122-3.496-0.773-8.906-2.293-16.242-4.558l-0.019 0.238-0.02 3c0.586-0.078 1.547-0.078 2.879 0 2.695 0.16 5.961 0.629 9.801 1.402 6.961 1.415 11.64 2.239 14.039 2.481 5.387 0.586 10.426 0.332 15.121-0.762 7.172-1.625 13.867-3.398 20.078-5.32l0.363-2.117zm-62.261 1.316v-1.476c-0.352-0.184-0.641-0.368-0.86-0.563l0.52 5.039 0.34-3z" inkscape:connector-curvature="0"/>
      <path id="path56" style="fill-rule:evenodd;fill:#ebcf99" d="m30.398 20.521c2.536 0.481 5.364 0.614 8.481 0.399 3.496-0.238 5.883-0.895 7.16-1.961 1.359-1.117 1.254-1.867-0.32-2.238-1.574-0.403-3.985-0.309-7.239 0.281-3.519 0.613-6.121 1.238-7.8 1.879-1.895 0.746-1.985 1.293-0.282 1.64z" inkscape:connector-curvature="0"/>
      <path id="path58" style="fill-rule:evenodd;fill:#ebcf99" d="m65.961 10.318c-0.508-0.316-1.359-0.613-2.563-0.879-2.398-0.586-5.32-0.8-8.757-0.64-6.829 0.293-11.309 0.441-13.442 0.441-5.094 0.028-8.492-0.32-10.199-1.039-2.293-1.176-3.973-1.988-5.039-2.441-1.84-0.825-3.816-1.227-5.922-1.2-3.437 0.051-7.68 0.321-12.719 0.801 3.868 0.024 7.094 0.199 9.68 0.52 3.199 0.398 6.398 1.133 9.602 2.199 3.039 1.012 7.023 1.652 11.957 1.922 3.468 0.183 7.054 0.183 10.761 0 2.266-0.137 5.602 0.117 10 0.758 3.973 0.586 6.012 0.972 6.121 1.16 0.079 0.082 0.184-0.16 0.321-0.719 0.078-0.293 0.144-0.59 0.199-0.883z" inkscape:connector-curvature="0"/>
      <path id="path60" style="fill-rule:evenodd;fill:#ebcf99" d="m65.398 6.4c-3.359-0.054-7.945 0.039-13.757 0.282-3.946 0.183-8.055 0-12.321-0.563-3.519-0.48-6.121-1.027-7.8-1.641-1.122-0.398-2.122-0.503-3-0.32l-0.961 0.442c2.375 1.175 4.242 1.933 5.601 2.281 3.602 0.961 7.934 1.265 13 0.918 4.985-0.344 9.707-0.371 14.16-0.078 2.239 0.16 3.973 0.347 5.2 0.558l-0.122-1.879z" inkscape:connector-curvature="0"/>
      <path id="path62" style="fill-rule:evenodd;fill:#ebcf99" d="m40.961 4.201c1.684 0.277 2.844 0.465 3.48 0.559 5.36 0.851 8.934 1.16 10.719 0.922 1.867-0.243 3.414-0.707 4.641-1.403 0.586-0.371 1-0.707 1.238-1l-2.48-0.519c-0.692 0.425-1.547 0.867-2.559 1.32-2.027 0.879-3.855 1.332-5.48 1.359-1.625 0.028-3.266-0.281-4.918-0.918l-2.043-0.921c-0.399 0.105-0.84 0.226-1.321 0.359-0.547 0.125-0.976 0.207-1.277 0.242z" inkscape:connector-curvature="0"/>
      <path id="path64" style="fill-rule:evenodd;fill:#ebcf99" d="m19.441 58.002c1.465 0.398 1.747 0.851 0.84 1.359-0.91 0.504-2.535 0.692-4.883 0.559-2.265-0.106-4-0.453-5.199-1.039-0.558-0.266-0.453-0.496 0.321-0.68 0.535-0.109 1.867-0.281 4-0.519 1.867-0.188 3.507-0.082 4.921 0.32zm3.598-0.16c-0.32-1.469-2.133-2.094-5.437-1.883-3.707 0.242-6.629 0.773-8.762 1.601-2.215 0.852-2.215 1.547 0 2.079 1.972 0.48 3.652 0.8 5.039 0.961 2.187 0.265 4.215 0.253 6.082-0.04 2.371-0.347 3.398-1.253 3.078-2.718z" inkscape:connector-curvature="0"/>
      <path id="path66" style="fill-rule:evenodd;fill:#ebcf99" d="m8.641 7.521c-3.575 0.239-4.84 0.719-3.801 1.438 1.922 1.309 4.762 2.293 8.519 2.961 3.922 0.695 7.121 0.707 9.602 0.039 2.426-0.664 2.867-1.613 1.32-2.84-1.519-1.172-3.613-1.773-6.281-1.801-4.375 0-7.492 0.067-9.359 0.203zm3.16 2.84c-1.336-0.347-2.508-0.695-3.52-1.043-0.773-0.316 0.426-0.531 3.598-0.636 3.176-0.11 5.641-0.016 7.402 0.277 1.758 0.293 2.504 0.734 2.239 1.32-0.239 0.563-1.332 0.879-3.282 0.961-1.625 0.078-3.769-0.215-6.437-0.879z" inkscape:connector-curvature="0"/>
      <path id="path68" style="fill-rule:evenodd;fill:#b59c6f" d="m53.559 67.842c2.988 0.105 4.789 0.023 5.402-0.242 1.625-0.665 2.758-1.067 3.398-1.2 2-0.425 2.907-0.988 2.719-1.679-0.023-0.082-0.172-0.36-0.437-0.84-0.215-0.348-0.266-0.629-0.161-0.84 0.266-0.508 0.239-1.16-0.082-1.961-0.293-0.855-0.476-0.945-0.558-0.281-0.078 0.562-0.508 1.027-1.281 1.402-0.692 0.32-1.559 0.52-2.598 0.598-1.254 0.082-17.922 0.386-50 0.922-0.828 0-1.375-0.563-1.641-1.68-0.16-0.586-0.281-1.856-0.359-3.801-0.082-1.574-0.133-7.801-0.16-18.68-0.028-12.132 0.027-21.535 0.16-28.199 0.027-1.148 0.172-2.109 0.437-2.883 0.27-0.718 0.563-1.105 0.883-1.16l0.957-1.718c-2.398-0.188-3.957-0.239-4.679-0.161-0.719 0.082-2.145 0.868-4.278 2.36l0.68 21.801 0.238 31.558 3.082 6.563c27.117-0.082 43.211-0.039 48.278 0.121z" inkscape:connector-curvature="0"/>
      <path id="path70" style="fill-rule:evenodd;fill:#fff2d1" d="m65.16 10.842v49.558c0 1.332-0.465 2.493-1.398 3.481-0.961 0.961-2.11 1.465-3.442 1.519l-49.121 1.282c-1.332 0.023-2.48-0.414-3.437-1.321-0.934-0.933-1.403-2.082-1.403-3.441v-49.559c0-1.336 0.469-2.496 1.403-3.48 0.933-0.988 2.066-1.496 3.398-1.52l49.16-1.281c1.305-0.055 2.442 0.398 3.399 1.359 0.933 0.934 1.414 2.067 1.441 3.403zm0.32-4.602c0-1.039 0.04-2.187 0.122-3.441-0.11-0.746-0.829-1.106-2.161-1.078l-55.921 1.398c-1.547 0.027-2.895 0.641-4.04 1.84-1.148 1.199-1.718 2.574-1.718 4.121l0.238 56.641c0 1.414 0.559 2.359 1.68 2.839 0.8 0.375 2.121 0.532 3.961 0.481l51.839-1.602c2.321-0.054 3.708-0.148 4.161-0.281 1.226-0.344 1.839-1.183 1.839-2.519v-58.399z" inkscape:connector-curvature="0"/>
      <path id="path72" style="fill-rule:evenodd;fill:#c7b48d" d="m2.559 48.4c-0.079 0.801 0.148 5.602 0.679 14.399l0.801 2.922 4.242 2.398 1.641-1.598c-1.043-0.242-1.895-0.789-2.563-1.64-0.664-0.856-1-1.84-1-2.961v-49.559c0-1.734 0.707-3.109 2.121-4.121-0.613-0.187-1.039-0.519-1.281-1-0.265-0.535-0.226-1.16 0.121-1.879 0.239-0.426 0.282-0.855 0.121-1.281-0.136-0.375-0.402-0.668-0.8-0.879-1.602 0.32-2.895 1.211-3.879 2.68l-0.082 0.238c-0.375 2-0.492 9.508-0.36 22.52 0.078 6.535 0.16 13.121 0.239 19.761z" inkscape:connector-curvature="0"/>
      <path id="path74" style="fill-rule:evenodd;fill:#ebcf99" d="m63.559 58.799c0 1.386-0.493 2.679-1.481 3.883-1.039 1.277-2.211 1.933-3.519 1.957l-49.481 1.203c-1.305 0.023-2.504-0.535-3.598-1.684-1.066-1.144-1.601-2.398-1.601-3.758l0.562-50.16c-0.027-1.281 0.493-2.347 1.559-3.199 0.988-0.801 2.172-1.227 3.559-1.281l49.16-1.282c1.308-0.05 2.441 0.403 3.402 1.364 0.934 0.933 1.414 2.066 1.438 3.398v49.559zm2.601 7.601c1.012-1.121 1.52-2.453 1.52-4l-0.121-57.039c0-1.519-0.571-2.789-1.719-3.801-1.094-1.015-2.426-1.492-4-1.441l-55.918 1.402c-1.547 0.028-2.895 0.637-4.043 1.84-1.145 1.199-1.719 2.574-1.719 4.117l0.238 56.641c0 1.547 0.547 2.856 1.641 3.922 1.066 1.039 2.375 1.547 3.922 1.519l56.398-1.441c1.52-0.051 2.786-0.625 3.801-1.719z" inkscape:connector-curvature="0"/>
      <path id="path76" style="fill-rule:evenodd;fill:#5c92a8" d="m3.039 32.002c0.695-0.055 1.016 0.105 0.961 0.476-0.133 0.215-0.453 0.321-0.961 0.321v-0.797zm-0.039 7.117c0.078 0.027 0.188 0.094 0.32 0.199-0.105 0.563-0.281 0.883-0.519 0.961-0.242-0.211-0.336-0.613-0.281-1.199 0.187-0.055 0.347-0.039 0.48 0.039zm-0.199 2.359c-0.028-0.32 0.066-0.543 0.277-0.679 0.11 0.109 0.137 0.242 0.082 0.402-0.055 0.184-0.172 0.277-0.359 0.277zm-1.199-0.918c0 0.239-0.122 0.426-0.364 0.559-0.238 0.16-0.465 0.16-0.679 0v-0.398c0.109-0.028 0.296-0.094 0.562-0.2 0.211-0.082 0.371-0.066 0.481 0.039zm0.238 1.481c-0.32 0.078-0.535 0.039-0.641-0.121 0.106-0.078 0.266-0.199 0.481-0.36 0.242-0.132 0.441-0.121 0.601 0.04 0.024 0.214-0.121 0.359-0.441 0.441zm-0.641 5.199c-0.187 0.051-0.359 0.039-0.519-0.039-0.106-0.027-0.239-0.094-0.399-0.199 0.078-0.402 0.387-0.629 0.918-0.684 0.106 0.082 0.16 0.231 0.16 0.442 0 0.242-0.054 0.398-0.16 0.48zm62.36 14.801c0.109 0.133 0.16 0.332 0.16 0.598 0 0.32-0.094 0.48-0.278 0.48-0.136-0.133-0.175-0.32-0.121-0.559 0.028-0.242 0.106-0.414 0.239-0.519zm-0.118 3.879c0.426-0.238 0.747-0.012 0.957 0.68 0.188 0.668-0.05 1.015-0.718 1.039-0.078-0.133-0.133-0.414-0.16-0.84 0-0.453-0.028-0.746-0.079-0.879zm4.481-3.199v-4.801c-0.348-0.051-0.656-0.133-0.922-0.238 0.133-0.43 0.441-0.668 0.922-0.723v-17.399c-0.242-0.425-0.547-0.785-0.922-1.082-0.16 0.028-0.387 0.161-0.68 0.403-0.242 0.211-0.508 0.304-0.8 0.277-0.051-0.293 0-0.558 0.16-0.797 0.16-0.269 0.242-0.496 0.242-0.679-0.055-0.137-0.215-0.309-0.481-0.524-0.242-0.211-0.386-0.426-0.441-0.637 0.641-0.375 0.828-0.867 0.559-1.48-0.559-1.309-0.84-1.973-0.84-2-0.051-0.348-0.184-0.828-0.399-1.441-0.16-0.508-0.242-0.907-0.242-1.2 0.617 0.188 1.11 1.149 1.481 2.879 0.453 2 0.8 3.16 1.043 3.481 0.265 0.32 0.703 0.508 1.32 0.558v-12.437l-0.363-0.16v-0.282c0-0.32-0.051-0.531-0.161-0.64-0.023-0.051-0.078-0.117-0.16-0.199 0-1.254-0.066-2.012-0.199-2.282-0.105-0.211-0.184-0.25-0.238-0.117-0.082 0.106-0.067 0.277 0.039 0.52 0.082 0.187 0.066 0.597-0.039 1.238-0.106 0.562-0.242 1.055-0.403 1.48l-0.16-0.039c0.16-0.961 0.242-1.48 0.242-1.558 0-0.242-0.082-0.375-0.242-0.403-0.211-0.027-0.343-0.066-0.398-0.121-0.078-0.105-0.078-0.316 0-0.636 0.105-0.43 0.148-0.747 0.121-0.961-0.027-0.266-0.106-0.36-0.242-0.282-0.399 0.243-0.614 0.36-0.641 0.36-0.211-0.051-0.41-0.012-0.598 0.121l-0.402 0.199c0.11 0.535 0.176 1.039 0.203 1.52 0.024 0.32 0.012 0.546-0.043 0.679-0.133 0.188-0.265 0.387-0.398 0.602-0.188 0.238-0.133 0.535 0.16 0.879l-0.199 0.121c0 0.133 0.039 0.48 0.121 1.039 0.051 0.402 0.012 0.723-0.121 0.961h-0.281v32.238c0 1.336-0.465 2.496-1.399 3.481-0.961 0.961-2.109 1.468-3.441 1.519l-49.442 1.281c-1.332 0.028-2.476-0.414-3.437-1.32-0.934-0.934-1.403-2.078-1.403-3.437v-6.364c-0.878-0.05-1.503 0.297-1.878 1.043-0.532 0-0.84-0.043-0.918-0.121 0.05-0.719 0.359-1.347 0.918-1.879 0.558-0.562 1.187-0.855 1.878-0.883v-12.918c-0.21-0.187-0.304-0.453-0.277-0.8l0.277-0.039-0.039-27.922c0-0.426 0.094-0.946 0.282-1.559-0.989 0.559-1.829 0.895-2.52 1-0.453-0.16-0.652-0.519-0.601-1.082 0.027-0.426 0.187-0.863 0.48-1.316-0.078-0.43-0.32-0.762-0.719-1-0.082-0.055-0.48-0.231-1.203-0.524-0.051 0.215-0.078 0.524-0.078 0.922v7.16l0.922 0.801-0.922 0.078v32.84c0.238 0.375 0.238 0.695 0 0.961v15.398c0 1.547 0.547 2.856 1.641 3.922 1.093 1.067 2.414 1.586 3.961 1.559l56.757-1.481c1.547-0.05 2.852-0.636 3.922-1.757 1.094-1.121 1.641-2.453 1.641-4z" inkscape:connector-curvature="0"/>
      <path id="path78" style="fill-rule:evenodd;fill:#5c92a8" d="m62.359 4.4c-0.265-0.215-0.586-0.375-0.961-0.48 0.082-0.188 0.297-0.481 0.641-0.879l0.121 0.16c0.188 0.133 0.348 0.399 0.481 0.801l-0.282 0.398zm2.243 1.84h-0.403v-0.922c0.028-0.343 0.121-0.57 0.281-0.679 0.133 0.187 0.215 0.429 0.239 0.722 0.054 0.371 0.015 0.664-0.117 0.879zm-0.801 1.719c0.32 0.562 0.277 0.922-0.121 1.082-0.188-0.668-0.145-1.027 0.121-1.082zm-16.801-4.199c-0.293-0.508-0.348-0.867-0.16-1.078 0.293-0.028 0.519 0.011 0.68 0.117-0.161 0.535-0.332 0.855-0.52 0.961zm-36.281-1.2c0.16 0.161 0.16 0.348 0 0.559-0.133 0.188-0.305 0.309-0.52 0.359-0.16-0.183-0.187-0.398-0.078-0.636 0.106-0.242 0.305-0.336 0.598-0.282zm-3.559 2.36c-0.187 0.082-0.332 0.082-0.441 0l-0.239-0.238c0.028-0.11 0.133-0.387 0.321-0.84 0.054-0.16 0.187-0.242 0.398-0.242l-0.199 0.359c0.215 0.375 0.266 0.695 0.16 0.961zm60.281 14.082-0.121-0.242 0.559-0.16v-8.879l-0.117-0.243 0.117-0.117v-3.883c0-1.226-0.359-2.32-1.078-3.277-0.696-0.961-1.602-1.613-2.723-1.961l-0.156 0.84c-0.563-0.16-1.043-0.227-1.442-0.199l0.2-0.879-53.481 1.359-0.199 0.039h-1c-0.027 0.614 0 1.106 0.078 1.481-0.293 0.027-0.453 0.039-0.476 0.039-0.028 0-0.094-0.199-0.204-0.602-0.132-0.449-0.437-0.718-0.918-0.797-0.375-0.054-0.972 0-1.8 0.161-0.641 0.132-1.293 0.453-1.961 0.957-0.531 0.402-0.879 0.746-1.039 1.043-0.106 0.531-0.293 0.933-0.559 1.199-0.16 0.187-0.187 0.371-0.082 0.558 0.16 0.188 0.254 0.321 0.281 0.403 0.028 0.023 0.215 0.277 0.559 0.758 0.082 0.105 0.254 0.105 0.519 0 0.403-0.215 0.68-0.332 0.84-0.36 0.297-0.082 0.535-0.066 0.723 0.039 0.211 0.133 0.387 0.254 0.519 0.36 0.161 0.054 0.305 0.066 0.442 0.043-0.348 0.425-0.535 0.878-0.563 1.359 0.055 0.16 0.243 0.332 0.563 0.519 0.398-0.828 0.984-1.48 1.758-1.96 0.773-0.508 1.625-0.774 2.558-0.801l16.403-0.438 0.039-0.519 0.281 0.519 9.641-0.261c0-0.442 0.093-0.661 0.277-0.661 0 0.055 0.094 0.121 0.281 0.2 0.133 0.054 0.172 0.16 0.121 0.32-0.093 0.074-0.234 0.121-0.422 0.141l22.782-0.579c1.332-0.054 2.48 0.387 3.437 1.321 0.961 0.933 1.442 2.078 1.442 3.437v4.52c0.105-1.067 0.292-2.117 0.558-3.16l0.762 0.402c-0.215 0.32-0.293 0.758-0.238 1.32 0.078 0.879 0.117 1.414 0.117 1.598l-0.559 1.922c-0.215 0.719-0.066 1.277 0.442 1.679-0.137 0.586-0.204 0.973-0.204 1.161 0 0.371 0.161 0.652 0.481 0.839l-0.52 0.36c-0.214 0.16-0.359 0.32-0.437 0.48 0.316 0.106 0.664 0.055 1.039-0.16 0.211-0.133 0.531-0.332 0.961-0.601 0.211 0.296 0.426 0.519 0.637 0.679 0.347 0.242 0.613 0.149 0.8-0.277 0.133-0.348 0.161-0.695 0.082-1.039z" inkscape:connector-curvature="0"/>
      <path id="path80" style="fill-rule:evenodd;fill:#b59c6f" d="m53.602 16.76c0.691-0.055 1.199 0.027 1.519 0.242 0.32 0.238 0.172 0.383-0.441 0.437-0.321 0.028-0.735-0.066-1.239-0.281-0.507-0.211-0.453-0.344 0.161-0.398zm2.277 3.281c-0.586 0.051-1.199-0.066-1.84-0.359-0.48-0.188-0.867-0.414-1.16-0.68-0.371-0.297-0.574-0.469-0.598-0.524-0.109-0.183 0.094-0.304 0.598-0.359 0.32-0.027 0.562 0.027 0.723 0.16 0.16 0.16 0.625 0.215 1.398 0.16 0.695-0.054 1.305-0.187 1.84-0.398 0.293-0.133 0.547-0.106 0.762 0.078 0.293 0.266 0.226 0.641-0.204 1.121-0.398 0.481-0.906 0.746-1.519 0.801zm-6.598 9.519c0.184 0.028 0.36 0.04 0.52 0.04 0.133 0 0.265 0.148 0.398 0.441 0.16 0.398 0.067 0.906-0.277 1.519-0.375 0.692-0.883 1.079-1.524 1.161-0.425 0.078-0.73 0.027-0.918-0.161-0.187-0.214-0.054-0.535 0.399-0.96 0.348-0.321 0.641-0.786 0.883-1.399 0.183-0.453 0.359-0.668 0.519-0.641zm-26.922-13.679c-0.371-0.453-0.425-0.723-0.16-0.801l0.16-0.398c0.055-0.137 0.36-0.043 0.922 0.277 0.692 0.402 1.078 0.734 1.16 1 0.106 0.266-0.082 0.426-0.562 0.48-0.613 0.082-1.117-0.105-1.52-0.558zm-1.757 6.039 0.437 0.84c-0.559-0.641-1.039-1.028-1.437-1.16-0.161-0.051-0.161-0.145 0-0.282 0.078-0.05 0.171-0.105 0.277-0.16 0.215 0.055 0.453 0.309 0.723 0.762zm16 13.48c-0.614 1.2-0.977 1.907-1.082 2.121-0.586 0.879-1.145 1.321-1.68 1.321-0.559 0-1.133-0.684-1.719-2.043-0.293-0.719-0.586-1.574-0.883-2.559-0.05-0.238-0.277-0.906-0.679-2-0.348-1.039-0.52-1.719-0.52-2.039 0-0.375 0.16-0.629 0.481-0.762-0.293-0.906-0.332-1.492-0.122-1.757 0.137-0.188 0.176-0.403 0.122-0.641 0-0.082 0.093-0.055 0.281 0.078 0.265 0.133 0.437 0.309 0.519 0.52 0.055 0.136 0.078 0.375 0.078 0.722 0 0.078 0.11 0.387 0.321 0.918h4.722c0.692 0 1.145 0.028 1.36 0.082 0.64 0.106 0.961 0.371 0.961 0.797 0 0.723-0.723 2.469-2.16 5.242zm4.398 14.758c0.453 0.828 0.453 1.281 0 1.363-1.762 0.266-2.359 0.184-1.801-0.242 0.453-0.371 1.055-0.746 1.801-1.121zm-5.52 6.922c1.465 0 2.879-0.508 4.239-1.52-0.879-0.32-1.227-0.585-1.039-0.8 0.132-0.133 0.308-0.266 0.519-0.399 0.215-0.136 0.414-0.293 0.602-0.48 0.16-0.188 0.32-0.453 0.48-0.801 0.16-0.215 0.36-0.172 0.598 0.121 0.16 0.16 0.336 0.426 0.519 0.801 1.282-1.387 2.774-3.707 4.481-6.961 0.535-0.988 2.359-5.055 5.48-12.199 3.2-7.336 5.293-12.27 6.282-14.801 0.64-1.707 1.707-2.801 3.199-3.281 1.199-0.399 1.801-1.188 1.801-2.36 0-2.027-1.481-3.375-4.442-4.039-1.437-0.32-3.64-0.48-6.597-0.48-4.907 0-8.137 0.172-9.68 0.519-2.348 0.535-3.524 1.719-3.524 3.559 0 1.094 0.59 1.894 1.762 2.402 1.172 0.504 1.762 1.106 1.762 1.797 0 1.442-0.629 2.336-1.883 2.684-1.144 0.316-4.094 0.476-8.84 0.476-1.758 0-2.933-0.144-3.519-0.437-0.852-0.453-1.282-1.403-1.282-2.84 0-0.641 0.27-1.106 0.801-1.402-0.16-0.266-0.293-0.559-0.398-0.879l-0.723-0.559c0.137-0.535 0.336-0.613 0.602-0.242 0.558 0.586 0.972 1.055 1.242 1.402 0.746-0.269 1.238-0.496 1.476-0.679 0.481-0.43 0.723-1.055 0.723-1.883 0-2.614-2.855-3.918-8.562-3.918-3.731 0-6.254 0.371-7.559 1.121-0.934 0.531-1.398 1.426-1.398 2.68 0 1.144 0.586 1.984 1.757 2.519 1.575 0.719 2.575 1.371 3 1.957 0.563 0.75 1.172 1.856 1.84 3.32 0.133 0.321 0.641 1.524 1.52 3.602l3.64 8.879c1.36 3.441 2.266 5.906 2.719 7.402 0.934 3.012 1.402 5.641 1.402 7.879 0 2.399 0.52 4.266 1.559 5.602 1.176 1.492 2.988 2.238 5.441 2.238z" inkscape:connector-curvature="0"/>
      <path id="path82" style="fill-rule:evenodd;fill:#fff2d1" d="m48.719 38.799c3.203-7.305 5.293-12.239 6.281-14.797 0.641-1.707 1.734-2.801 3.281-3.281 1.199-0.375 1.774-1.149 1.719-2.321-0.105-2.879-1.535-4.828-4.281-5.84-1.492-0.558-3.574-0.839-6.239-0.839-4.187 0-7.507 0.531-9.96 1.597-2.508 1.094-3.758 2.629-3.758 4.602 0 1.121 0.586 1.933 1.758 2.441 1.175 0.504 1.761 1.106 1.761 1.797 0 1.414-0.629 2.297-1.883 2.641-1.171 0.347-4.117 0.519-8.839 0.519-1.758 0-2.934-0.16-3.52-0.476-0.851-0.43-1.277-1.375-1.277-2.84 0-0.777 0.625-1.375 1.879-1.801 1.226-0.402 1.839-1.199 1.839-2.402 0-2.641-2.855-3.957-8.558-3.957-3.734 0-6.254 0.371-7.563 1.117-0.933 0.562-1.398 1.469-1.398 2.723 0 1.117 0.586 1.945 1.758 2.476 1.574 0.723 2.574 1.387 3 2 0.562 0.75 1.176 1.856 1.84 3.32 0.082 0.188 0.586 1.387 1.519 3.602l3.602 8.879c1.308 3.254 2.226 5.723 2.761 7.402 0.934 3.012 1.399 5.641 1.399 7.879 0 2.399 0.519 4.266 1.558 5.602 1.176 1.492 2.977 2.238 5.403 2.238 2.211 0 4.304-1.133 6.277-3.398 1.203-1.387 2.59-3.602 4.16-6.641 0.535-0.988 2.364-5.066 5.481-12.242zm-15.84 2.679c-0.586 0.883-1.145 1.321-1.68 1.321-0.558 0-1.133-0.68-1.719-2.039-0.082-0.16-0.375-1.012-0.878-2.559-0.055-0.242-0.282-0.906-0.68-2-0.348-1.043-0.524-1.707-0.524-2 0-0.48 0.27-0.773 0.801-0.883 0.133-0.023 0.563-0.039 1.281-0.039h4.321c0.691 0 1.144 0.016 1.359 0.039 0.641 0.137 0.961 0.403 0.961 0.801 0 0.43-0.293 1.309-0.883 2.641-0.453 1.015-0.879 1.879-1.277 2.601-0.613 1.199-0.973 1.907-1.082 2.117z" inkscape:connector-curvature="0"/>
      <path id="path84" style="fill-rule:evenodd;fill:#c7b48d" d="m36.559 46.119-1.079 8.641c-0.718 1.734-0.933 3.093-0.64 4.082 0.348 1.172 1.375 1.172 3.082 0 1.598-1.496 3.371-4.094 5.316-7.801 0.535-0.988 2.364-5.066 5.481-12.242 3.203-7.305 5.293-12.239 6.281-14.797 0.48-1.309 1.188-2.242 2.121-2.801-1.469-0.586-2.32-1.348-2.562-2.281-0.348-1.281 0.281-1.813 1.882-1.602 1.813 0.215 2.985 0.883 3.52 2 0.051-0.371 0.066-0.679 0.039-0.918-0.133-3.812-2.574-5.988-7.32-6.519-1.121 1.387-3.426 4.371-6.918 8.961l-4.922 6.476-4.281 18.801z" inkscape:connector-curvature="0"/>
      <path id="path86" style="fill-rule:evenodd;fill:#ffe2a8" d="m47.121 36.4c3.199-7.308 5.293-12.242 6.277-14.8 0.641-1.707 1.707-2.801 3.204-3.282 1.199-0.371 1.796-1.144 1.796-2.316 0-2.027-1.476-3.387-4.437-4.082-1.441-0.32-3.641-0.481-6.602-0.481-4.879 0-8.105 0.172-9.679 0.52-2.348 0.562-3.52 1.746-3.52 3.562 0 1.118 0.586 1.934 1.762 2.438 1.172 0.508 1.758 1.109 1.758 1.801 0 1.414-0.625 2.293-1.879 2.64-1.176 0.348-4.121 0.52-8.84 0.52-1.762 0-2.934-0.16-3.52-0.481-0.855-0.425-1.281-1.371-1.281-2.839 0-0.774 0.625-1.375 1.879-1.801 1.227-0.399 1.84-1.199 1.84-2.399 0-2.64-2.852-3.961-8.559-3.961-3.734 0-6.254 0.375-7.558 1.121-0.934 0.559-1.403 1.465-1.403 2.719 0 1.121 0.586 1.946 1.762 2.481 1.574 0.718 2.574 1.386 3 2 0.559 0.746 1.172 1.851 1.84 3.32 0.078 0.188 0.586 1.387 1.519 3.602l3.598 8.878c1.309 3.254 2.227 5.719 2.762 7.399 0.933 3.016 1.398 5.641 1.398 7.883 0 2.398 0.524 4.265 1.563 5.597 1.172 1.496 2.972 2.243 5.398 2.243 2.215 0 4.309-1.137 6.281-3.403 1.2-1.386 2.586-3.597 4.161-6.64 0.531-0.985 2.359-5.067 5.48-12.239zm-20.121-0.601c-0.055-0.239-0.281-0.906-0.68-2-0.347-1.039-0.519-1.707-0.519-2 0-0.481 0.265-0.774 0.801-0.879 0.132-0.027 0.558-0.039 1.277-0.039h4.32c0.696 0 1.149 0.012 1.36 0.039 0.64 0.133 0.961 0.398 0.961 0.801 0 0.425-0.293 1.304-0.879 2.64-0.453 1.012-0.879 1.879-1.282 2.598-0.613 1.199-0.972 1.906-1.078 2.121-0.586 0.879-1.148 1.32-1.679 1.32-0.563 0-1.137-0.679-1.723-2.039-0.078-0.16-0.371-1.015-0.879-2.562z" inkscape:connector-curvature="0"/>
      <path id="path88" style="fill-rule:evenodd;fill:#5c92a8" d="m45.559 31.158c0.136 0.027 0.269 0.176 0.402 0.442 0.16 0.402 0.066 0.906-0.281 1.519-0.375 0.695-0.879 1.094-1.52 1.199-0.426 0.082-0.734 0.016-0.922-0.199-0.183-0.211-0.05-0.519 0.403-0.918 0.347-0.32 0.64-0.789 0.879-1.402 0.187-0.453 0.359-0.664 0.519-0.641 0.188 0.027 0.359 0.027 0.52 0zm3.8-12.797c0.696-0.054 1.2 0.024 1.52 0.239 0.32 0.214 0.176 0.347-0.438 0.402-0.296 0.051-0.707-0.043-1.242-0.281-0.531-0.215-0.48-0.336 0.16-0.36zm4 1.321c0.293 0.265 0.227 0.636-0.199 1.117-0.398 0.48-0.906 0.75-1.519 0.801-1.039 0.082-2.039-0.254-3-1-0.403-0.348-0.602-0.532-0.602-0.559-0.105-0.188 0.094-0.309 0.602-0.359 0.32-0.028 0.558 0.039 0.718 0.199 0.161 0.16 0.629 0.211 1.403 0.16 0.691-0.055 1.304-0.199 1.84-0.441 0.32-0.133 0.57-0.106 0.757 0.082zm-35.238-3.403c0.051-0.133 0.359-0.039 0.918 0.281 0.695 0.375 1.082 0.692 1.16 0.961 0.106 0.266-0.078 0.426-0.558 0.481-0.614 0.078-1.121-0.109-1.52-0.563-0.375-0.453-0.426-0.718-0.16-0.8l0.16-0.36zm-1.762 7.242 0.442 0.84c-0.535-0.668-1.016-1.066-1.442-1.203-0.16-0.023-0.16-0.105 0-0.238 0.082-0.078 0.172-0.145 0.282-0.199 0.214 0.078 0.453 0.347 0.718 0.8zm16 13.438c-0.613 1.199-0.972 1.906-1.078 2.121-0.586 0.879-1.148 1.32-1.679 1.32-0.563 0-1.137-0.679-1.723-2.039-0.078-0.16-0.371-1.015-0.879-2.562-0.055-0.239-0.281-0.906-0.68-2-0.347-1.039-0.519-1.707-0.519-2 0-0.371 0.16-0.625 0.48-0.758-0.293-0.906-0.336-1.508-0.121-1.801 0.133-0.187 0.172-0.387 0.121-0.601 0-0.079 0.094-0.067 0.278 0.043 0.269 0.16 0.441 0.343 0.519 0.558 0.055 0.106 0.082 0.332 0.082 0.68 0 0.105 0.106 0.426 0.32 0.961h4.719c0.696 0 1.149 0.012 1.36 0.039 0.64 0.133 0.961 0.398 0.961 0.801 0 0.425-0.293 1.304-0.879 2.64-0.453 1.012-0.879 1.879-1.282 2.598zm2.602 15.922c0.453-0.375 1.051-0.746 1.801-1.121 0.449 0.8 0.449 1.242 0 1.32-1.789 0.32-2.387 0.254-1.801-0.199zm0.519 4.238c-0.906-0.266-1.253-0.519-1.039-0.758 0.133-0.136 0.305-0.269 0.52-0.402 0.211-0.16 0.414-0.332 0.598-0.52 0.16-0.187 0.32-0.453 0.48-0.8 0.16-0.184 0.359-0.145 0.602 0.121l0.519 0.84c1.227-1.36 2.719-3.68 4.481-6.961 0.531-0.985 2.359-5.067 5.48-12.239 3.199-7.308 5.293-12.242 6.277-14.8 0.641-1.707 1.707-2.801 3.204-3.282 1.199-0.371 1.796-1.144 1.796-2.316 0-2.027-1.476-3.387-4.437-4.082-1.441-0.32-3.641-0.481-6.602-0.481-4.879 0-8.105 0.172-9.679 0.52-2.348 0.562-3.52 1.746-3.52 3.562 0 1.118 0.586 1.934 1.762 2.438 1.172 0.508 1.758 1.109 1.758 1.801 0 1.414-0.625 2.293-1.879 2.64-1.176 0.348-4.121 0.52-8.84 0.52-1.762 0-2.934-0.16-3.52-0.481-0.855-0.425-1.281-1.371-1.281-2.839 0-0.614 0.266-1.067 0.801-1.36-0.16-0.293-0.293-0.601-0.402-0.922l-0.719-0.558c0.133-0.508 0.332-0.575 0.601-0.2 0.559 0.586 0.973 1.051 1.239 1.399 0.746-0.266 1.242-0.492 1.48-0.68 0.481-0.426 0.719-1.054 0.719-1.879 0-2.64-2.852-3.961-8.559-3.961-3.734 0-6.254 0.375-7.558 1.121-0.934 0.559-1.403 1.465-1.403 2.719 0 1.121 0.586 1.946 1.762 2.481 1.574 0.718 2.574 1.386 3 2 0.559 0.746 1.172 1.851 1.84 3.32 0.078 0.188 0.586 1.387 1.519 3.602l3.598 8.878c1.309 3.254 2.227 5.719 2.762 7.399 0.933 3.016 1.398 5.641 1.398 7.883 0 2.398 0.524 4.265 1.563 5.597 1.172 1.496 2.972 2.243 5.398 2.243 1.52 0 2.946-0.524 4.281-1.563z" inkscape:connector-curvature="0"/>
    </g>
  </g>
<metadata><rdf:RDF><cc:Work><dc:format>image/svg+xml</dc:format><dc:type rdf:resource="http://purl.org/dc/dcmitype/StillImage"/><cc:license rdf:resource="http://creativecommons.org/licenses/publicdomain/"/><dc:publisher><cc:Agent rdf:about="http://openclipart.org/"><dc:title>Openclipart</dc:title></cc:Agent></dc:publisher></cc:Work><cc:License rdf:about="http://creativecommons.org/licenses/publicdomain/"><cc:permits rdf:resource="http://creativecommons.org/ns#Reproduction"/><cc:permits rdf:resource="http://creativecommons.org/ns#Distribution"/><cc:permits rdf:resource="http://creativecommons.org/ns#DerivativeWorks"/></cc:License></rdf:RDF></metadata></svg>
