<?xml version="1.0"?>
<svg xmlns:rdf="http://www.w3.org/1999/02/22-rdf-syntax-ns#" xmlns="http://www.w3.org/2000/svg" xmlns:cc="http://creativecommons.org/ns#" xmlns:xlink="http://www.w3.org/1999/xlink" xmlns:dc="http://purl.org/dc/elements/1.1/" xmlns:svg="http://www.w3.org/2000/svg" id="svg3020" viewBox="0 0 176.88 213.47" version="1.1">
  <title id="title4143">Paperback Icon</title>
  <defs id="defs3022">
    <filter id="filter4012" height="1.1981" width="2.9722" y="-.099039" x="-.98609" color-interpolation-filters="sRGB">
      <feGaussianBlur id="feGaussianBlur4014" stdDeviation="5.6615888"/>
    </filter>
    <linearGradient id="linearGradient4151" y2="502.36" gradientUnits="userSpaceOnUse" x2="540.5" gradientTransform="matrix(1 0 0 .99250 -10.784 -278.1)" y1="502.36" x1="459.5">
      <stop id="stop4028" stop-color="#007f00" offset="0"/>
      <stop id="stop4034" stop-color="#7f7f7f" offset=".093197"/>
      <stop id="stop4030" stop-color="#be8000" offset="1"/>
    </linearGradient>
    <linearGradient id="linearGradient4154" y2="461.02" gradientUnits="userSpaceOnUse" x2="331.05" gradientTransform="matrix(1 0 0 .99232 -7.2836 -279.97)" y1="494.57" x1="429.18">
      <stop id="stop4114" stop-color="#fa68d4" offset="0"/>
      <stop id="stop4116" stop-color="#00f" stop-opacity=".49664" offset=".95644"/>
      <stop id="stop4118" stop-color="#00f" stop-opacity=".6" offset="1"/>
    </linearGradient>
  </defs>
  <g id="layer1" transform="translate(-348.41 -121.86)">
    <path id="path4064" d="m437.88 174.18s0.30868-6.4197 2.0422-8.8935c9.5856-13.678 20-24.864 34.866-33.181 9.6609-5.4047 31.592-10.241 31.592-10.241v17.787l-54.715 38.713z" fill="#e6e6e6"/>
    <path id="path4066" d="m444.88 174.36 2-8.5s18.677-19.756 32.5-28c7.6345-4.5533 27.654-10.731 27.654-10.731l4.8462 0.23077v14l-53.5 37z" stroke="#000" stroke-width=".1" fill="#f2f2f2"/>
    <path id="path4068" d="m445.88 179.36 2-8.5s18.677-19.756 32.5-28c7.6345-4.5533 27.654-10.731 27.654-10.731l4.8462 0.23077v14l-53.5 37z" stroke="#000" stroke-width=".1" fill="#e6e6e6"/>
    <path id="path4054" d="m432 174.86-2-8.5s-22.677-19.756-36.5-28c-7.6345-4.5533-21.154-8.7308-21.154-8.7308l-9.8462 0.73077-14 9.5 70 39z" stroke="#000" stroke-width=".1" fill="#f9f9f9"/>
    <path id="path4052" fill="#f9f9f9" d="m439 174.68s-0.30868-6.4197-2.0422-8.8935c-9.5856-13.678-24-24.864-38.866-33.181-9.66-5.41-31.59-10.25-31.59-10.25v17.787l58.715 38.713z"/>
    <path id="path4056" d="m431 179.86-2-8.5s-22.677-19.756-36.5-28c-7.6345-4.5533-21.154-8.7308-21.154-8.7308l-4.8462 0.23077v14l51 35z" stroke="#000" stroke-width=".1" fill="#e6e6e6"/>
    <path id="path2998" d="m349.5 130.34c4.0571-6.6024 1.1065-2.5563 10.473 4.0125 21.249 8.8253 41.497 17.826 62.746 34.573 16.6 49.616 7.8613 100.71-0.5 150.33 6.5333-0.24935-16.909-29.104-68.161-46.107-2.4428-0.8104-4.8389-5.978-4.8389-5.978z" stroke="#000" stroke-width=".099616" fill="url(#linearGradient4154)"/>
    <path id="path4042" d="m449.22 170.87c30.695-12.513 49.402-27.015 73.5-46.125 0 0 2.5188 3.2179 2.5 5.1158-0.48286 48.637 0 146.68 0 146.68s-2.4739 5.9179-5.1062 6.0339c-26.939 1.1877-67.894 34.166-67.894 34.166z" stroke="#000" stroke-width=".099625" fill="url(#linearGradient4151)"/>
    <path id="path4048" d="m427.22 171.25c6.2983 3.8645 11.82 3.8471 16.786 1.0491l7.7141-0.0491-0.5 146.5c-13.092 0.0108-20.71-2.3677-28.5 1v-148.38z" stroke="#000" stroke-width=".1" fill="#ff9529"/>
    <path id="path4050" d="m452.03 170.74-0.59911 147.38" stroke="#e9c6af" fill="#e9c6af"/>
    <path id="path4078" opacity=".64435" d="m430.55 461.5 15.789-1.6575 1.2808 128.12-17.814 10.662z" fill-opacity=".83929" transform="matrix(1.0878 0 0 1.0589 -41.055 -312.98)" filter="url(#filter4012)" fill="#fff"/>
    <g id="text4120" stroke="#fff" stroke-width=".1" transform="rotate(90)" fill="#000080">
      <path id="path3869" style="" d="m198.51-437.48v4.68h-2.7v-13.122h5.796c1.368 0.00001 2.412 0.34801 3.132 1.044 0.73199 0.69601 1.098 1.704 1.098 3.024-0.00001 1.332-0.36001 2.394-1.08 3.186-0.72001 0.792-1.68 1.188-2.88 1.188h-3.366m0-2.25h2.52c1.404 0 2.106-0.654 2.106-1.962-0.00001-0.672-0.17401-1.17-0.522-1.494-0.33601-0.32399-0.86401-0.48599-1.584-0.486h-2.52v3.942"/>
      <path id="path3871" style="" d="m210.84-432.38c-0.888-0.00001-1.602-0.264-2.142-0.792-0.54-0.54-0.81-1.248-0.81-2.124 0-1.716 0.954-2.736 2.862-3.06l1.008-0.18c0.024 0 0.14399-0.012 0.36-0.036 0.21599-0.036 0.35399-0.06 0.414-0.072 0.06-0.024 0.17399-0.054 0.342-0.09 0.17999-0.036 0.30599-0.078 0.378-0.126 0.072-0.048 0.15599-0.108 0.252-0.18 0.10799-0.084 0.17999-0.174 0.216-0.27 0.036-0.108 0.054-0.228 0.054-0.36-0.00001-0.648-0.48601-0.972-1.458-0.972-0.62401 0-1.062 0.096-1.314 0.288s-0.408 0.54-0.468 1.044h-2.43c0.156-2.244 1.542-3.366 4.158-3.366 2.652 0.00001 3.978 0.996 3.978 2.988v5.4c-0.00001 0.444 0.19199 0.84 0.576 1.188v0.306h-2.736c-0.19201-0.24-0.28801-0.564-0.288-0.972-0.88801 0.924-1.872 1.386-2.952 1.386m2.934-4.32v-0.684c-0.22801 0.108-0.58201 0.21-1.062 0.306l-0.864 0.162c-0.52801 0.108-0.9 0.264-1.116 0.468s-0.324 0.492-0.324 0.864c0 0.36 0.12 0.648 0.36 0.864 0.252 0.204 0.58799 0.306 1.008 0.306 0.63599 0 1.128-0.198 1.476-0.594 0.34799-0.396 0.52199-0.96 0.522-1.692"/>
      <path id="path3873" style="" d="m224.35-442.68c1.224 0.00001 2.208 0.492 2.952 1.476 0.74399 0.984 1.116 2.214 1.116 3.69-0.00001 1.476-0.39001 2.706-1.17 3.69-0.76801 0.972-1.734 1.458-2.898 1.458-1.2-0.00001-2.1-0.528-2.7-1.584v5.076h-2.52v-13.644h2.52v1.44c0.6-1.068 1.5-1.602 2.7-1.602m0.954 2.97c-0.38401-0.576-0.894-0.864-1.53-0.864s-1.152 0.282-1.548 0.846c-0.384 0.564-0.576 1.302-0.576 2.214s0.192 1.65 0.576 2.214c0.396 0.552 0.912 0.828 1.548 0.828 0.624 0 1.134-0.282 1.53-0.846 0.39599-0.564 0.59399-1.284 0.594-2.16-0.00001-0.924-0.19801-1.668-0.594-2.232"/>
      <path id="path3875" style="" d="m234.96-442.68c0.41999 0.00001 0.82799 0.048 1.224 0.144 0.39599 0.096 0.79799 0.27 1.206 0.522 0.41999 0.252 0.77999 0.576 1.08 0.972 0.31199 0.384 0.56399 0.9 0.756 1.548 0.19199 0.636 0.28799 1.368 0.288 2.196-0.00001 0.144-0.006 0.288-0.018 0.432h-6.516c0.012 0.372 0.042 0.696 0.09 0.972 0.06 0.264 0.15599 0.528 0.288 0.792 0.14399 0.252 0.34799 0.45 0.612 0.594 0.27599 0.132 0.61799 0.198 1.026 0.198 0.95999 0 1.602-0.408 1.926-1.224h2.484c-0.27601 0.96-0.82201 1.728-1.638 2.304-0.81601 0.564-1.77 0.84599-2.862 0.846-1.38-0.00001-2.466-0.444-3.258-1.332-0.792-0.9-1.188-2.13-1.188-3.69 0-1.632 0.402-2.916 1.206-3.852 0.804-0.948 1.902-1.422 3.294-1.422m1.926 4.14c-0.06-0.708-0.25801-1.254-0.594-1.638-0.32401-0.384-0.78001-0.576-1.368-0.576-1.104 0-1.74 0.738-1.908 2.214h3.87"/>
      <path id="path3877" style="" d="m242.02-442.52h2.52v1.908c0.26399-0.66 0.63599-1.17 1.116-1.53 0.47999-0.35999 1.008-0.53999 1.584-0.54 0.10799 0.00001 0.20999 0.006 0.306 0.018v2.556c-0.30001-0.048-0.56401-0.072-0.792-0.072-1.476 0-2.214 0.738-2.214 2.214v5.166h-2.52v-9.72"/>
      <path id="path3879" style="" d="m254.89-442.68c1.164 0.00001 2.136 0.486 2.916 1.458 0.77999 0.96 1.17 2.19 1.17 3.69-0.00001 1.464-0.39001 2.688-1.17 3.672-0.78 0.984-1.752 1.476-2.916 1.476-1.188-0.00001-2.082-0.468-2.682-1.404v0.99h-2.52v-13.122h2.52v4.662c0.6-0.948 1.494-1.422 2.682-1.422m0.972 2.97c-0.396-0.576-0.906-0.864-1.53-0.864s-1.134 0.282-1.53 0.846c-0.396 0.552-0.594 1.272-0.594 2.16 0 0.924 0.192 1.668 0.576 2.232 0.396 0.564 0.912 0.846 1.548 0.846 0.624 0 1.134-0.282 1.53-0.846s0.594-1.29 0.594-2.178c0-0.9-0.198-1.632-0.594-2.196"/>
      <path id="path3881" style="" d="m263.97-432.38c-0.888-0.00001-1.602-0.264-2.142-0.792-0.54-0.54-0.81-1.248-0.81-2.124 0-1.716 0.954-2.736 2.862-3.06l1.008-0.18c0.024 0 0.14399-0.012 0.36-0.036 0.21599-0.036 0.35399-0.06 0.414-0.072 0.06-0.024 0.17399-0.054 0.342-0.09 0.17999-0.036 0.30599-0.078 0.378-0.126 0.072-0.048 0.15599-0.108 0.252-0.18 0.10799-0.084 0.17999-0.174 0.216-0.27 0.036-0.108 0.054-0.228 0.054-0.36-0.00001-0.648-0.48601-0.972-1.458-0.972-0.624 0-1.062 0.096-1.314 0.288s-0.408 0.54-0.468 1.044h-2.43c0.156-2.244 1.542-3.366 4.158-3.366 2.652 0.00001 3.978 0.996 3.978 2.988v5.4c-0.00001 0.444 0.19199 0.84 0.576 1.188v0.306h-2.736c-0.19201-0.24-0.28801-0.564-0.288-0.972-0.88801 0.924-1.872 1.386-2.952 1.386m2.934-4.32v-0.684c-0.22801 0.108-0.58201 0.21-1.062 0.306l-0.864 0.162c-0.528 0.108-0.9 0.264-1.116 0.468s-0.324 0.492-0.324 0.864c0 0.36 0.12 0.648 0.36 0.864 0.252 0.204 0.588 0.306 1.008 0.306 0.63599 0 1.128-0.198 1.476-0.594 0.34799-0.396 0.52199-0.96 0.522-1.692"/>
      <path id="path3883" style="" d="m276.39-440.65c-1.368 0-2.052 1.062-2.052 3.186 0 0.948 0.18 1.692 0.54 2.232 0.372 0.54 0.876 0.81 1.512 0.81 0.49199 0 0.87599-0.132 1.152-0.396 0.27599-0.276 0.49199-0.726 0.648-1.35h2.412c-0.12001 1.164-0.56401 2.088-1.332 2.772-0.75601 0.672-1.722 1.008-2.898 1.008-1.44-0.00001-2.562-0.444-3.366-1.332-0.792-0.888-1.188-2.136-1.188-3.744 0-1.656 0.402-2.94 1.206-3.852s1.932-1.368 3.384-1.368c1.212 0.00001 2.19 0.336 2.934 1.008 0.75599 0.672 1.176 1.602 1.26 2.79h-2.412c-0.14401-0.636-0.35401-1.086-0.63-1.35-0.26401-0.276-0.65401-0.414-1.17-0.414"/>
      <path id="path3885" style="" d="m285.44-438.74 3.186-3.78h2.862l-3.312 3.672 3.546 6.048h-2.952l-2.322-4.284-1.008 1.098v3.186h-2.52v-13.122h2.52v7.182"/>
    </g>
  </g>
  <metadata>
    <rdf:RDF>
      <cc:Work>
        <dc:format>image/svg+xml</dc:format>
        <dc:type rdf:resource="http://purl.org/dc/dcmitype/StillImage"/>
        <cc:license rdf:resource="http://creativecommons.org/licenses/publicdomain/"/>
        <dc:publisher>
          <cc:Agent rdf:about="http://openclipart.org/">
            <dc:title>Openclipart</dc:title>
          </cc:Agent>
        </dc:publisher>
        <dc:title>Paperback Book Icon</dc:title>
        <dc:date>2013-07-02T18:20:47</dc:date>
        <dc:description>Paperback book with non-sharp corners</dc:description>
        <dc:source>http://openclipart.org/detail/179943/paperback-book-icon-by-algotruneman-179943</dc:source>
        <dc:creator>
          <cc:Agent>
            <dc:title>algotruneman</dc:title>
          </cc:Agent>
        </dc:creator>
        <dc:subject>
          <rdf:Bag>
            <rdf:li>book</rdf:li>
            <rdf:li>icon</rdf:li>
            <rdf:li>paperback</rdf:li>
            <rdf:li>reading</rdf:li>
          </rdf:Bag>
        </dc:subject>
      </cc:Work>
      <cc:License rdf:about="http://creativecommons.org/licenses/publicdomain/">
        <cc:permits rdf:resource="http://creativecommons.org/ns#Reproduction"/>
        <cc:permits rdf:resource="http://creativecommons.org/ns#Distribution"/>
        <cc:permits rdf:resource="http://creativecommons.org/ns#DerivativeWorks"/>
      </cc:License>
    </rdf:RDF>
  </metadata>
</svg>
